<!-- google-logo.svg -->
<svg xmlns="http://www.w3.org/2000/svg" viewBox="0 0 533.5 544.3" width="100%" height="100%">
  <path fill="#4285F4" d="M533.5 278.4c0-18.6-1.5-37-4.6-54.8H272v103.8h146.9c-6.3 33.9-25 62.7-53.2 82.1v68.2h85.9c50.4-46.5 81.9-115.2 81.9-199.3z"></path>
  <path fill="#34A853" d="M272 544.3c72.1 0 132.7-23.9 176.9-64.8l-85.9-68.2c-23.8 15.8-54.5 25.3-91 25.3-69.9 0-129.2-47.2-150.4-110.5H33.9v69.2c44.6 88.6 135.5 149 238.1 149z"></path>
  <path fill="#FBBC04" d="M121.6 326.1c-10.3-30.2-10.3-62.9 0-93.1V163.8H33.9c-33.6 66.9-33.6 144.1 0 211l87.7-68.7z"></path>
  <path fill="#EA4335" d="M272 107.7c37.8 0 71.7 13 98.3 38.6l73.6-73.6C404.7 24.8 345.7 0 272 0 169.4 0 78.5 60.3 33.9 148.9l87.7 68.7c21.3-63.3 80.6-110.5 150.4-110.5z"></path>
</svg>
